<?xml version="1.0" encoding="UTF-8" standalone="no"?>
<!DOCTYPE svg PUBLIC "-//W3C//DTD SVG 1.1//EN"
 "http://www.w3.org/Graphics/SVG/1.1/DTD/svg11.dtd">
<!-- Generated by graphviz version 2.40.1 (20161225.0304)
 -->
<!-- Title: snakemake_dag Pages: 1 -->
<svg width="185pt" height="260pt"
 viewBox="0.00 0.00 185.00 260.00" xmlns="http://www.w3.org/2000/svg" xmlns:xlink="http://www.w3.org/1999/xlink">
<g id="graph0" class="graph" transform="scale(1 1) rotate(0) translate(4 256)">
<title>snakemake_dag</title>
<polygon fill="#ffffff" stroke="transparent" points="-4,4 -4,-256 181,-256 181,4 -4,4"/>
<!-- 0 -->
<g id="node1" class="node">
<title>0</title>
<path fill="none" stroke="#56d8a9" stroke-width="2" d="M114.5,-36C114.5,-36 36.5,-36 36.5,-36 30.5,-36 24.5,-30 24.5,-24 24.5,-24 24.5,-12 24.5,-12 24.5,-6 30.5,0 36.5,0 36.5,0 114.5,0 114.5,0 120.5,0 126.5,-6 126.5,-12 126.5,-12 126.5,-24 126.5,-24 126.5,-30 120.5,-36 114.5,-36"/>
<text text-anchor="middle" x="75.5" y="-15.5" font-family="sans" font-size="10.00" fill="#000000">plot_counts_stats</text>
</g>
<!-- 1 -->
<g id="node2" class="node">
<title>1</title>
<path fill="none" stroke="#56a9d8" stroke-width="2" d="M115,-108C115,-108 36,-108 36,-108 30,-108 24,-102 24,-96 24,-96 24,-84 24,-84 24,-78 30,-72 36,-72 36,-72 115,-72 115,-72 121,-72 127,-78 127,-84 127,-84 127,-96 127,-96 127,-102 121,-108 115,-108"/>
<text text-anchor="middle" x="75.5" y="-87.5" font-family="sans" font-size="10.00" fill="#000000">star_second_pass</text>
</g>
<!-- 1&#45;&gt;0 -->
<g id="edge1" class="edge">
<title>1&#45;&gt;0</title>
<path fill="none" stroke="#c0c0c0" stroke-width="2" d="M75.5,-71.8314C75.5,-64.131 75.5,-54.9743 75.5,-46.4166"/>
<polygon fill="#c0c0c0" stroke="#c0c0c0" stroke-width="2" points="79.0001,-46.4132 75.5,-36.4133 72.0001,-46.4133 79.0001,-46.4132"/>
</g>
<!-- 2 -->
<g id="node3" class="node">
<title>2</title>
<path fill="none" stroke="#59d856" stroke-width="2" d="M47,-252C47,-252 12,-252 12,-252 6,-252 0,-246 0,-240 0,-240 0,-228 0,-228 0,-222 6,-216 12,-216 12,-216 47,-216 47,-216 53,-216 59,-222 59,-228 59,-228 59,-240 59,-240 59,-246 53,-252 47,-252"/>
<text text-anchor="middle" x="29.5" y="-231.5" font-family="sans" font-size="10.00" fill="#000000">trim_clip</text>
</g>
<!-- 2&#45;&gt;1 -->
<g id="edge4" class="edge">
<title>2&#45;&gt;1</title>
<path fill="none" stroke="#c0c0c0" stroke-width="2" d="M23.3794,-215.6661C18.1831,-196.9319 12.9531,-167.3564 22.5,-144 26.9592,-133.0907 34.8025,-123.1954 43.1103,-114.9434"/>
<polygon fill="#c0c0c0" stroke="#c0c0c0" stroke-width="2" points="45.5045,-117.4965 50.4572,-108.1305 40.7448,-112.3637 45.5045,-117.4965"/>
</g>
<!-- 3 -->
<g id="node4" class="node">
<title>3</title>
<path fill="none" stroke="#d8ac56" stroke-width="2" d="M107,-180C107,-180 44,-180 44,-180 38,-180 32,-174 32,-168 32,-168 32,-156 32,-156 32,-150 38,-144 44,-144 44,-144 107,-144 107,-144 113,-144 119,-150 119,-156 119,-156 119,-168 119,-168 119,-174 113,-180 107,-180"/>
<text text-anchor="middle" x="75.5" y="-159.5" font-family="sans" font-size="10.00" fill="#000000">star_first_pass</text>
</g>
<!-- 2&#45;&gt;3 -->
<g id="edge6" class="edge">
<title>2&#45;&gt;3</title>
<path fill="none" stroke="#c0c0c0" stroke-width="2" d="M41.1077,-215.8314C46.2978,-207.7079 52.5232,-197.9637 58.2425,-189.0118"/>
<polygon fill="#c0c0c0" stroke="#c0c0c0" stroke-width="2" points="61.3015,-190.7246 63.736,-180.4133 55.4026,-186.9559 61.3015,-190.7246"/>
</g>
<!-- 3&#45;&gt;1 -->
<g id="edge2" class="edge">
<title>3&#45;&gt;1</title>
<path fill="none" stroke="#c0c0c0" stroke-width="2" d="M75.5,-143.8314C75.5,-136.131 75.5,-126.9743 75.5,-118.4166"/>
<polygon fill="#c0c0c0" stroke="#c0c0c0" stroke-width="2" points="79.0001,-118.4132 75.5,-108.4133 72.0001,-118.4133 79.0001,-118.4132"/>
</g>
<!-- 4 -->
<g id="node5" class="node">
<title>4</title>
<path fill="none" stroke="#afd856" stroke-width="2" d="M165,-252C165,-252 102,-252 102,-252 96,-252 90,-246 90,-240 90,-240 90,-228 90,-228 90,-222 96,-216 102,-216 102,-216 165,-216 165,-216 171,-216 177,-222 177,-228 177,-228 177,-240 177,-240 177,-246 171,-252 165,-252"/>
<text text-anchor="middle" x="133.5" y="-231.5" font-family="sans" font-size="10.00" fill="#000000">star_reference</text>
</g>
<!-- 4&#45;&gt;1 -->
<g id="edge3" class="edge">
<title>4&#45;&gt;1</title>
<path fill="none" stroke="#c0c0c0" stroke-width="2" d="M135.8189,-215.8917C137.4406,-197.0777 137.7644,-167.1994 127.5,-144 122.7828,-133.3383 115,-123.5262 106.8745,-115.2745"/>
<polygon fill="#c0c0c0" stroke="#c0c0c0" stroke-width="2" points="109.0509,-112.5141 99.3941,-108.1556 104.2251,-117.5849 109.0509,-112.5141"/>
</g>
<!-- 4&#45;&gt;3 -->
<g id="edge5" class="edge">
<title>4&#45;&gt;3</title>
<path fill="none" stroke="#c0c0c0" stroke-width="2" d="M118.8642,-215.8314C112.1839,-207.5386 104.1432,-197.557 96.8096,-188.4533"/>
<polygon fill="#c0c0c0" stroke="#c0c0c0" stroke-width="2" points="99.3319,-186.0052 90.3329,-180.4133 93.8806,-190.3965 99.3319,-186.0052"/>
</g>
</g>
</svg>
